<svg xmlns="http://www.w3.org/2000/svg" xmlns:xlink="http://www.w3.org/1999/xlink" version="1.1" style="" xml:space="preserve" width="128" height="128"><rect id="backgroundrect" width="100%" height="100%" x="0" y="0" fill="none" stroke="none"/>
<style type="text/css">
	.st0{fill:#FFFFFF;}
	.st1{fill:#444B54;}
	.st2{fill:#71C2FF;}
	.st3{fill:none;stroke:#444B54;stroke-width:6;stroke-linecap:round;stroke-linejoin:round;stroke-miterlimit:10;}
	.st4{fill:none;stroke:#C95065;stroke-width:6;stroke-linecap:round;stroke-linejoin:round;stroke-miterlimit:10;}
</style>

<g class="currentLayer" style=""><title>Layer 1</title><g id="svg_1" class="">
	<g id="svg_2">
		<path class="st0" d="M97.91675728455989,51.134950006689174 c0,16.60084474639244 -14.517366962480713,30.064521981655602 -32.417421372529745,30.064521981655602 s-32.417421372529745,-13.463677235263162 -32.417421372529745,-30.064521981655602 V15.318954254629887 l64.83484274505949,7.1893422130046005 V51.134950006689174 z" id="svg_3"/>
	</g>
	<g id="svg_4">
		<path class="st0" d="M117.79004603902376,124.20480995340864 C107.36009307568813,107.34253458108877 87.90964025217029,95.97030235324513 65.49933591203015,95.97030235324513 h0 c-22.41030434014013,0 -41.86075716365797,11.37223222784364 -52.29071012699364,28.234507600163525 L13.349571095351864,128.64913059417512 h104.29952963335657 L117.79004603902376,124.20480995340864 z" id="svg_5"/>
	</g>
	<g id="svg_6">
		<path class="st1" d="M13.208625785036514,128.12626934232023 c-0.7047265515767339,0 -1.4094531031534672,-0.13071531296372013 -2.1141796547302008,-0.5228612518548801 c-1.973234344414854,-1.0457225037097602 -2.6779608959915873,-3.3985981370567204 -1.550398413468814,-5.35932783151252 C20.960617852380583,103.68250581810462 42.38430502031329,92.04884296433353 65.49933591203015,92.04884296433353 s44.53871805964957,11.633662853771082 55.95528819519265,30.195237294619325 c1.127562482522774,1.83001438149208 0.4228359309460405,4.31360532780276 -1.550398413468814,5.35932783151252 s-4.651195240406441,0.39214593889116034 -5.778757722929215,-1.4378684426009203 C104.11835093843516,109.95684084036317 85.51356997680939,99.89176174215673 65.49933591203015,99.89176174215673 c-20.01423406477923,0 -38.619015026404995,10.065079098206441 -48.62613205879462,26.273777905707725 C16.168477301658797,127.34197746453793 14.759024198505331,128.12626934232023 13.208625785036514,128.12626934232023 z" id="svg_7"/>
	</g>
	<g id="svg_8">
		<path class="st1" d="M84.66789811491729,11.136064239790848 l-0.563781241261387,-0.7842918777823203 c-4.087413999145054,-5.35932783151252 -10.852788894281698,-8.62721065560552 -17.90005441004903,-8.62721065560552 H54.22371108680241 c-17.90005441004903,0 -32.417421372529745,13.463677235263162 -32.417421372529745,30.064521981655602 v0 c0,2.2221603203832405 1.8322890340995082,3.9214593889116003 4.2283593094604015,3.9214593889116003 h7.32915613639803 c0.14094531031534685,0 0.14094531031534685,0 0.2818906206306937,0 c16.208710686264872,0 32.699311993160435,0 44.53871805964957,-9.803648472279 v0.13071531296372013 c0.563781241261387,-0.5228612518548801 1.127562482522774,-0.9150071907460403 1.550398413468814,-1.4378684426009203 c1.550398413468814,-1.56858375556464 4.2283593094604015,-1.83001438149208 5.919703033244563,-0.39214593889116034 c1.8322890340995082,1.4378684426009203 1.973234344414854,4.05217470187532 0.2818906206306937,5.751473770403681 c-0.7047265515767339,0.6535765648186004 -1.2685077928381205,1.1764378166734801 -1.973234344414854,1.83001438149208 c-1.8322890340995082,1.6992990685283609 -1.127562482522774,4.5750359537302 1.2685077928381205,5.490043144476241 l0,0 c1.4094531031534672,0.5228612518548801 2.9598515166222814,0.7842918777823203 4.510249930091096,0.9150071907460403 c2.1141796547302008,0.26143062592744026 3.8055233785143616,1.83001438149208 3.8055233785143616,3.9214593889116003 v8.88864128153296 c0,13.85582317415432 -11.275624825227737,25.75091665385284 -26.21582771865449,26.66592384459888 C51.12291425986478,78.71588104203408 37.45121915927616,66.69007224937184 37.310273848960804,51.65781125854405 c0,-2.0914450074195203 -1.6913437237841604,-3.9214593889116003 -3.946468688829708,-4.05217470187532 c-2.3960702753608945,-0.13071531296372013 -4.510249930091096,1.6992990685283609 -4.510249930091096,3.9214593889116003 c0,18.692289753811963 16.490601306895563,33.9859813705672 36.645780681990146,33.9859813705672 c19.591398133833195,0 35.65916350978272,-14.247969113045482 36.645780681990146,-32.28668230203884 c0,-0.13071531296372013 0,-0.26143062592744026 0,-0.39214593889116034 V34.53410526029673 v-3.9214593889116003 v-1.3071531296372 C102.1451165940203,19.89399020836008 94.53406983699156,12.181786743500602 84.66789811491729,11.136064239790848 z" id="svg_9"/>
	</g>
</g></g></svg>