<svg version="1.1" width="640" height="480" viewBox="0 0 640 480" xmlns="http://www.w3.org/2000/svg" xmlns:xlink="http://www.w3.org/1999/xlink"><defs xmlns="http://www.w3.org/2000/svg"><style xmlns="http://www.w3.org/1999/xhtml" type="text/css">@import url(https://fonts.googleapis.com/css?family=Bevan:regular);</style></defs><g xmlns="http://www.w3.org/2000/svg" id="obj_1"><g id="obj_64" transform="matrix(1,0,0,1,197.32569921315377,108.5051927149192)" opacity="1" display="inline"><path d="M 154.1015 154.8717 C 140.8975 76.6292 19.1895 106.493 28.4821 0 C 12.6151 26.5037 0.0404 59.0557 0.0001 91.0187 C -0.0704 143.787 44.0622 215.6993 112.7075 217.0157 C 127.3864 217.3001 140.1626 214.8133 151.0334 210.1318 C 156.3895 193.6003 157.4416 174.6475 154.1015 154.8717 Z " fill-opacity="1" fill="url(#obj_64_grad_pat_fill)" stroke="none" stroke-width="1" stroke-linecap="square" stroke-linejoin="miter"/><defs><radialGradient cx="0.5" cy="0.5" r="0.606" id="obj_64_grad_pat_fill"><stop offset="0" stop-color="#4EC9F5"/><stop offset="1" stop-color="#28AAE2"/></radialGradient></defs></g><g id="obj_66" transform="matrix(1,0,0,1,238.17869273581854,50.323119273993626)" opacity="1" display="inline"><path d="M 155.1494 178.5076 C 148.195 103.308 24.9491 125.4548 50.4787 17.5699 C 57.934 -13.9376 30.5947 0.1524 3.9223 34.3581 C 4.4509 37.3407 4.2445 41.4358 3.0993 46.8322 C -21.3858 162.1674 106.9771 136.1343 115.7815 216.0331 C 117.858 234.8877 115.9929 252.7608 110.3323 268.2502 C 143.6368 253.8154 158.8645 218.6306 155.1494 178.5076 Z " fill-opacity="1" fill="url(#obj_66_grad_pat_fill)" stroke="none" stroke-width="1" stroke-linecap="square" stroke-linejoin="miter"/><defs><linearGradient spreadMethod="pad" id="obj_66_grad_pat_fill"><stop offset="0" stop-color="#28AAE2"/><stop offset="1" stop-color="#1F2E7F"/></linearGradient></defs></g><g id="obj_67" transform="matrix(-0.6018150231520484,0.7986355100472927,-0.7986355100472927,-0.6018150231520484,396.6765178987631,137.72462883080073)" opacity="1" display="inline"><path d="M 25.739 0 C 25.739 0 52.9869 39.567 9.145 75.733 C -11.819 93.022 6.533 108.788 31.248 96.515 C 49.6319 87.396 57.5229 25.666 25.739 0 Z " fill-opacity="1" fill="url(#obj_67_grad_pat_fill)" stroke="none" stroke-width="1" stroke-linecap="square" stroke-linejoin="miter"/><defs><radialGradient cx="0.5" cy="0.5" r="1.639" id="obj_67_grad_pat_fill"><stop offset="0" stop-color="#00AEEF"/><stop offset="1" stop-color="#008ED4"/></radialGradient></defs></g><g id="obj_68" transform="matrix(-0.5150380749100543,0.8571673007021123,-0.8571673007021123,-0.5150380749100543,395.3761472064533,126.51716052549729)" opacity="1" display="inline"><path d="M 36.7085 0 C 55.8614 29.3511 46.4324 73.6472 28.3725 81.2642 C 17.0075 86.0592 6.7986 86.5602 0.0416 84.3752 C -0.9514 94.5592 15.9765 100.0962 36.7515 91.3322 C 57.0304 82.7762 66.4534 27.9511 36.7085 0 Z " fill-opacity="1" fill="url(#obj_68_grad_pat_fill)" stroke="none" stroke-width="1" stroke-linecap="square" stroke-linejoin="miter"/><defs><radialGradient cx="0.5" cy="0.5" r="1.559" id="obj_68_grad_pat_fill"><stop offset="0" stop-color="#4EC9F5"/><stop offset="1" stop-color="#28AAE2"/></radialGradient></defs></g><g id="obj_69" transform="matrix(1,0,0,1,212.50308945949422,209.81543875858762)" opacity="1" display="inline"><path d="M 138.9244 53.5613 C 134.2152 25.648 115.6928 11.4925 94.233 0 C 100.2234 37.2915 90.2512 69.4937 67.2309 78.5725 C 46.3702 86.803 20.3799 73.8179 0 47.9912 C 18.462 83.989 52.781 114.8497 97.5277 115.7054 C 112.2067 115.9899 124.9829 113.5031 135.8537 108.8215 C 141.2124 92.29 142.2645 73.3372 138.9244 53.5613 Z " fill-opacity="1" fill="url(#obj_69_grad_pat_fill)" stroke="none" stroke-width="1" stroke-linecap="square" stroke-linejoin="miter"/><defs><linearGradient spreadMethod="pad" id="obj_69_grad_pat_fill"><stop offset="0" stop-color="#28AAE2"/><stop offset="1" stop-color="#1F2E7F"/></linearGradient></defs></g><g id="obj_70" transform="matrix(1,0,0,1,238.18112856570343,50.32316175062408)" opacity="1" display="inline"><path d="M 61.3838 134.0355 C 51.8773 113.8997 31.7418 79.2233 41.8096 47.3432 C 43.8911 40.7513 46.1135 34.5167 48.3133 28.6723 C 48.8595 25.1234 49.5617 21.441 50.4779 17.5699 C 57.933 -13.9376 30.5941 0.1524 3.9222 34.3581 C 4.4507 37.3408 4.2443 41.4359 3.0991 46.8323 C -11.9396 117.6752 30.6847 135.1858 67.8523 156.6657 C 66.7197 149.2381 64.7539 141.1812 61.3838 134.0355 Z " fill-opacity="1" fill="url(#obj_70_grad_pat_fill)" stroke="none" stroke-width="1" stroke-linecap="square" stroke-linejoin="miter"/><defs><radialGradient cx="0.575" cy="1.245" r="2.568" id="obj_70_grad_pat_fill"><stop offset="0" stop-color="#28AAE2"/><stop offset="1" stop-color="#00478D"/></radialGradient></defs></g></g></svg>