<svg version="1.1" width="200" height="278" viewBox="0 0 200 278" xmlns="http://www.w3.org/2000/svg" xmlns:xlink="http://www.w3.org/1999/xlink"><g xmlns="http://www.w3.org/2000/svg" id="obj_1"><g id="obj_3" transform="matrix(1,0,0,1,0,58.182)" opacity="1" display="inline"><path d="M 154.1011 154.8721 C 140.8971 76.629 19.1891 106.493 28.4821 0 C 12.6151 26.504 0.0401 59.056 0.0001 91.019 C -0.0709 143.7871 44.0621 215.6991 112.7071 217.0161 C 127.3861 217.3001 140.1621 214.8131 151.0331 210.1321 C 156.3891 193.6001 157.4411 174.6481 154.1011 154.8721 Z " fill-opacity="1" fill="url(#obj_3_grad_pat_fill)" stroke="none" stroke-width="1" stroke-linecap="square" stroke-linejoin="miter"/><defs><radialGradient cx="0.5" cy="0.5" r="0.606" id="obj_3_grad_pat_fill"><stop offset="0" stop-color="#4EC9F5"/><stop offset="1" stop-color="#28AAE2"/></radialGradient></defs></g><g id="obj_4" transform="matrix(1,0,0,1,40.853,0)" opacity="1" display="inline"><path d="M 155.1498 178.5078 C 148.1957 103.3077 24.9493 125.4548 50.4784 17.5696 C 57.9344 -13.9375 30.5944 0.1525 3.9223 34.3576 C 4.4513 37.3406 4.2443 41.4356 3.0993 46.8316 C -21.3858 162.1678 106.9776 136.1338 115.7816 216.0329 C 117.8586 234.8879 115.9936 252.761 110.3326 268.25 C 143.6367 253.816 158.8648 218.6309 155.1498 178.5078 Z " fill-opacity="1" fill="url(#obj_4_grad_pat_fill)" stroke="none" stroke-width="1" stroke-linecap="square" stroke-linejoin="miter"/><defs><linearGradient spreadMethod="pad" id="obj_4_grad_pat_fill"><stop offset="0" stop-color="#28AAE2"/><stop offset="1" stop-color="#1F2E7F"/></linearGradient></defs></g><g id="obj_5" transform="matrix(1,0,0,1,103.24,31.166)" opacity="1" display="inline"><path d="M 80.621 76.7919 C 80.621 76.7919 32.6235 74.7409 30.1245 17.9618 C 28.9334 -9.1853 5.2972 -4.0173 0.2251 23.1068 C -3.5559 43.2768 40.9956 86.7289 80.621 76.7919 Z " fill-opacity="1" fill="url(#obj_5_grad_pat_fill)" stroke="none" stroke-width="1" stroke-linecap="square" stroke-linejoin="miter"/><defs><radialGradient cx="0.5" cy="0.5" r="1.639" id="obj_5_grad_pat_fill"><stop offset="0" stop-color="#00AEEF"/><stop offset="1" stop-color="#008ED4"/></radialGradient></defs></g><g id="obj_6" transform="matrix(1,0,0,1,100.672,31.166)" opacity="1" display="inline"><path d="M 78.471 76.4938 C 43.4482 77.7948 10.3354 46.8978 13.1073 27.4948 C 14.8513 15.2837 19.6793 6.2747 25.0323 1.6077 C 16.8143 -4.4883 3.3494 7.1697 0.1624 29.4918 C -2.9486 51.2808 39.1922 87.5949 78.471 76.4938 Z " fill-opacity="1" fill="url(#obj_6_grad_pat_fill)" stroke="none" stroke-width="1" stroke-linecap="square" stroke-linejoin="miter"/><defs><radialGradient cx="0.5" cy="0.5" r="1.559" id="obj_6_grad_pat_fill"><stop offset="0" stop-color="#4EC9F5"/><stop offset="1" stop-color="#28AAE2"/></radialGradient></defs></g><g id="obj_7" transform="matrix(1,0,0,1,15.177,159.492)" opacity="1" display="inline"><path d="M 138.9238 53.5616 C 134.2148 25.6478 115.6929 11.4929 94.2329 0 C 100.2229 37.2917 90.2509 69.4934 67.2309 78.5724 C 46.3699 86.8023 20.38 73.8174 0 47.9916 C 18.462 83.9883 52.7809 114.8491 97.5279 115.7051 C 112.2069 115.9891 124.9828 113.5031 135.8538 108.8211 C 141.2118 92.2893 142.2648 73.3374 138.9238 53.5616 Z " fill-opacity="1" fill="url(#obj_7_grad_pat_fill)" stroke="none" stroke-width="1" stroke-linecap="square" stroke-linejoin="miter"/><defs><linearGradient spreadMethod="pad" id="obj_7_grad_pat_fill"><stop offset="0" stop-color="#28AAE2"/><stop offset="1" stop-color="#1F2E7F"/></linearGradient></defs></g><g id="obj_8" transform="matrix(1,0,0,1,40.855,0)" opacity="1" display="inline"><path d="M 61.384 134.0359 C 51.877 113.8999 31.7419 79.2228 41.81 47.3427 C 43.891 40.7507 46.114 34.5166 48.313 28.6716 C 48.86 25.1236 49.562 21.4406 50.478 17.5696 C 57.933 -13.9375 30.5939 0.1525 3.9219 34.3576 C 4.4509 37.3407 4.2439 41.4357 3.0989 46.8317 C -11.9391 117.6749 30.6849 135.1859 67.852 156.666 C 66.72 149.238 64.754 141.181 61.384 134.0359 Z " fill-opacity="1" fill="url(#obj_8_grad_pat_fill)" stroke="none" stroke-width="1" stroke-linecap="square" stroke-linejoin="miter"/><defs><radialGradient cx="0.575" cy="1.245" r="2.568" id="obj_8_grad_pat_fill"><stop offset="0" stop-color="#28AAE2"/><stop offset="1" stop-color="#00478D"/></radialGradient></defs></g></g></svg>