<svg version="1.1" width="640" height="480" viewBox="0 0 640 480" xmlns="http://www.w3.org/2000/svg" xmlns:xlink="http://www.w3.org/1999/xlink"><defs xmlns="http://www.w3.org/2000/svg"><style xmlns="http://www.w3.org/1999/xhtml" type="text/css">@import url(https://fonts.googleapis.com/css?family=Bevan:regular);</style></defs><g xmlns="http://www.w3.org/2000/svg" id="obj_1"><g id="obj_64" transform="matrix(1,0,0,1,197.32569921315377,108.5051927149192)" opacity="1" display="inline"><path d="M 154.1015 154.8717 C 140.8975 76.6292 19.1895 106.493 28.4821 0 C 12.6151 26.5037 0.0404 59.0557 0.0001 91.0187 C -0.0704 143.787 44.0622 215.6993 112.7075 217.0157 C 127.3864 217.3001 140.1626 214.8133 151.0334 210.1318 C 156.3895 193.6003 157.4416 174.6475 154.1015 154.8717 Z " fill-opacity="1" fill="url(#obj_64_grad_pat_fill)" stroke="none" stroke-width="1" stroke-linecap="square" stroke-linejoin="miter"/><defs><radialGradient cx="0.5" cy="0.5" r="0.606" id="obj_64_grad_pat_fill"><stop offset="0" stop-color="#4EC9F5"/><stop offset="1" stop-color="#28AAE2"/></radialGradient></defs></g><g id="obj_66" transform="matrix(1,0,0,1,238.17869273581854,50.323119273993626)" opacity="1" display="inline"><path d="M 155.1494 178.5076 C 148.195 103.308 24.9491 125.4548 50.4787 17.5699 C 57.934 -13.9376 30.5947 0.1524 3.9223 34.3581 C 4.4509 37.3407 4.2445 41.4358 3.0993 46.8322 C -21.3858 162.1674 106.9771 136.1343 115.7815 216.0331 C 117.858 234.8877 115.9929 252.7608 110.3323 268.2502 C 143.6368 253.8154 158.8645 218.6306 155.1494 178.5076 Z " fill-opacity="1" fill="url(#obj_66_grad_pat_fill)" stroke="none" stroke-width="1" stroke-linecap="square" stroke-linejoin="miter"/><defs><linearGradient spreadMethod="pad" id="obj_66_grad_pat_fill"><stop offset="0" stop-color="#28AAE2"/><stop offset="1" stop-color="#1F2E7F"/></linearGradient></defs></g><g id="obj_67" transform="matrix(-0.6018150231520484,0.7986355100472927,-0.7986355100472927,-0.6018150231520484,396.6765178987631,137.72462883080073)" opacity="1" display="inline"><path d="M 25.739 0 C 25.739 0 52.9869 39.567 9.145 75.733 C -11.819 93.022 6.533 108.788 31.248 96.515 C 49.6319 87.396 57.5229 25.666 25.739 0 Z " fill-opacity="1" fill="url(#obj_67_grad_pat_fill)" stroke="none" stroke-width="1" stroke-linecap="square" stroke-linejoin="miter"/><defs><radialGradient cx="0.5" cy="0.5" r="1.639" id="obj_67_grad_pat_fill"><stop offset="0" stop-color="#00AEEF"/><stop offset="1" stop-color="#008ED4"/></radialGradient></defs></g><g id="obj_68" transform="matrix(-0.5150380749100543,0.8571673007021123,-0.8571673007021123,-0.5150380749100543,395.3761472064533,126.51716052549729)" opacity="1" display="inline"><path d="M 36.7085 0 C 55.8614 29.3511 46.4324 73.6472 28.3725 81.2642 C 17.0075 86.0592 6.7986 86.5602 0.0416 84.3752 C -0.9514 94.5592 15.9765 100.0962 36.7515 91.3322 C 57.0304 82.7762 66.4534 27.9511 36.7085 0 Z " fill-opacity="1" fill="url(#obj_68_grad_pat_fill)" stroke="none" stroke-width="1" stroke-linecap="square" stroke-linejoin="miter"/><defs><radialGradient cx="0.5" cy="0.5" r="1.559" id="obj_68_grad_pat_fill"><stop offset="0" stop-color="#4EC9F5"/><stop offset="1" stop-color="#28AAE2"/></radialGradient></defs></g><g id="obj_69" transform="matrix(1,0,0,1,212.50308945949422,209.81543875858762)" opacity="1" display="inline"><path d="M 138.9244 53.5613 C 134.2152 25.648 115.6928 11.4925 94.233 0 C 100.2234 37.2915 90.2512 69.4937 67.2309 78.5725 C 46.3702 86.803 20.3799 73.8179 0 47.9912 C 18.462 83.989 52.781 114.8497 97.5277 115.7054 C 112.2067 115.9899 124.9829 113.5031 135.8537 108.8215 C 141.2124 92.29 142.2645 73.3372 138.9244 53.5613 Z " fill-opacity="1" fill="url(#obj_69_grad_pat_fill)" stroke="none" stroke-width="1" stroke-linecap="square" stroke-linejoin="miter"/><defs><linearGradient spreadMethod="pad" id="obj_69_grad_pat_fill"><stop offset="0" stop-color="#28AAE2"/><stop offset="1" stop-color="#1F2E7F"/></linearGradient></defs></g><g id="obj_70" transform="matrix(1,0,0,1,238.18112856570343,50.32316175062408)" opacity="1" display="inline"><path d="M 61.3838 134.0355 C 51.8773 113.8997 31.7418 79.2233 41.8096 47.3432 C 43.8911 40.7513 46.1135 34.5167 48.3133 28.6723 C 48.8595 25.1234 49.5617 21.441 50.4779 17.5699 C 57.933 -13.9376 30.5941 0.1524 3.9222 34.3581 C 4.4507 37.3408 4.2443 41.4359 3.0991 46.8323 C -11.9396 117.6752 30.6847 135.1858 67.8523 156.6657 C 66.7197 149.2381 64.7539 141.1812 61.3838 134.0355 Z " fill-opacity="1" fill="url(#obj_70_grad_pat_fill)" stroke="none" stroke-width="1" stroke-linecap="square" stroke-linejoin="miter"/><defs><radialGradient cx="0.575" cy="1.245" r="2.568" id="obj_70_grad_pat_fill"><stop offset="0" stop-color="#28AAE2"/><stop offset="1" stop-color="#00478D"/></radialGradient></defs></g><g id="obj_71" transform="matrix(1,0,0,1,229.106,344.315)" opacity="1" display="inline"><path d="M 0 30.3 L 4.7 30.3 L 4.7 8.65 L 0.65 8.65 L 0.65 0 L 20.5 0 C 23.767 0 26.517 0.267 28.75 0.8 C 30.983 1.333 32.758 2.35 34.075 3.85 C 35.392 5.35 36.05 7.483 36.05 10.25 C 36.05 12.183 35.492 13.867 34.375 15.3 C 33.258 16.733 31.833 17.767 30.1 18.4 C 32.367 19.367 34.042 20.625 35.125 22.175 C 36.208 23.725 36.75 25.85 36.75 28.55 C 36.75 31.85 35.458 34.4 32.875 36.2 C 30.292 38 26.633 38.9 21.9 38.9 L 0 38.9 L 0 30.3 M 18.55 15.7 C 20.417 15.7 21.792 15.442 22.675 14.925 C 23.558 14.408 24 13.433 24 12 C 24 11 23.692 10.192 23.075 9.575 C 22.458 8.958 21.65 8.65 20.65 8.65 L 17.2 8.65 L 17.2 15.7 L 18.55 15.7 M 18.1 30.3 C 20.067 30.3 21.583 30.025 22.65 29.475 C 23.717 28.925 24.25 27.783 24.25 26.05 C 24.25 23.383 22.617 22.05 19.35 22.05 C 18.617 22.05 17.9 22.067 17.2 22.1 L 17.2 30.3 L 18.1 30.3 Z M 55.95 39.35 C 52.917 39.35 50.283 38.792 48.05 37.675 C 45.817 36.558 44.1 34.967 42.9 32.9 C 41.7 30.833 41.1 28.417 41.1 25.65 C 41.1 22.917 41.683 20.542 42.85 18.525 C 44.017 16.508 45.658 14.958 47.775 13.875 C 49.892 12.792 52.367 12.25 55.2 12.25 C 57.833 12.25 60.15 12.767 62.15 13.8 C 64.15 14.833 65.7 16.3 66.8 18.2 C 67.9 20.1 68.45 22.317 68.45 24.85 C 68.45 25.717 68.317 26.55 68.05 27.35 L 52.85 27.35 C 52.85 28.883 53.425 30.108 54.575 31.025 C 55.725 31.942 57.117 32.4 58.75 32.4 C 59.983 32.4 61.342 32.183 62.825 31.75 C 64.308 31.317 65.8 30.65 67.3 29.75 L 67.7 29.9 L 67.7 36.45 C 66.033 37.417 64.317 38.142 62.55 38.625 C 60.783 39.108 58.583 39.35 55.95 39.35 M 59.1 23.05 L 59.1 22.55 C 59.1 21.383 58.833 20.383 58.3 19.55 C 57.767 18.717 56.983 18.3 55.95 18.3 C 55.083 18.3 54.35 18.725 53.75 19.575 C 53.15 20.425 52.85 21.35 52.85 22.35 L 52.85 23.05 L 59.1 23.05 Z M 84.8 39.35 C 81.633 39.35 79.275 38.542 77.725 36.925 C 76.175 35.308 75.4 32.85 75.4 29.55 L 75.4 19.9 L 71.5 19.9 L 71.5 12.75 L 75.4 12.75 L 75.4 7.15 L 87.1 4.55 L 87.1 12.75 L 91.8 12.75 L 91.8 19.9 L 87.1 19.9 L 87.1 28.7 C 87.1 29.433 87.375 30.042 87.925 30.525 C 88.475 31.008 89.167 31.25 90 31.25 C 90.6 31.25 91.2 31.2 91.8 31.1 L 91.8 37.9 C 89.667 38.867 87.333 39.35 84.8 39.35 Z " fill-opacity="1" fill="#000000" stroke="none" stroke-width="1" stroke-linecap="square" stroke-linejoin="miter"/><defs/></g><g id="obj_72" transform="matrix(1,0,0,1,323.469,337.005)" opacity="1" display="inline"><path d="M 30.856 60.116 C 22.04 60.116 15.694 57.811 11.818 53.2 C 7.942 48.589 6.004 41.825 6.004 32.908 L 6.004 13.072 L 0 13.072 L 0 0 L 32.224 0 L 32.224 13.072 L 26.752 13.072 L 26.752 37.924 C 26.752 40.356 27.347 42.345 28.538 43.89 C 29.729 45.435 31.591 46.208 34.124 46.208 C 36.252 46.208 37.937 45.575 39.178 44.308 C 40.419 43.041 41.04 41.319 41.04 39.14 L 41.04 13.072 L 34.96 13.072 L 34.96 0 L 59.204 0 L 59.204 13.072 L 53.504 13.072 L 53.504 38.608 C 53.504 45.701 51.427 51.059 47.272 54.682 C 43.117 58.305 37.645 60.116 30.856 60.116 Z " fill-opacity="1" fill="url(#obj_72_grad_pat_fill)" stroke="none" stroke-width="1" stroke-linecap="square" stroke-linejoin="miter"/><defs><linearGradient spreadMethod="pad" id="obj_72_grad_pat_fill"><stop offset="0" stop-color="#28AAE2"/><stop offset="1" stop-color="#1F2E7F"/></linearGradient></defs></g></g></svg>